<?xml version="1.0" encoding="utf-8"?>
<!-- Generator: Adobe Illustrator 19.0.0, SVG Export Plug-In . SVG Version: 6.00 Build 0)  -->
<svg version="1.1" id="Layer_1" xmlns="http://www.w3.org/2000/svg" xmlns:xlink="http://www.w3.org/1999/xlink" x="0px" y="0px"
	 viewBox="0 0 471.9 250" style="enable-background:new 0 0 471.9 250;" xml:space="preserve">
<style type="text/css">
	.st0{fill:#FFFFFF;stroke:#000000;stroke-width:5;stroke-miterlimit:10;}
	.st1{stroke:#000000;stroke-width:3;stroke-linejoin:round;stroke-miterlimit:10;}
	.st2{fill:none;stroke:#000000;stroke-width:5;stroke-linecap:round;stroke-linejoin:round;stroke-miterlimit:10;}
</style>
<g id="XMLID_34_">
	<line id="XMLID_26_" class="st0" x1="47.5" y1="243.2" x2="55.5" y2="243.2"/>
	<g id="XMLID_4_">
		<g id="XMLID_20_">
			<rect id="XMLID_17_" x="231.2" y="126.7" class="st0" width="10.8" height="17.9"/>
			<g id="XMLID_16_">
				<path id="XMLID_11_" class="st0" d="M287,188.5c0-27.7-22.7-50.3-50.3-50.3h0c-27.7,0-50.3,22.7-50.3,50.3v54.7H287V188.5z"/>
				<path id="XMLID_18_" d="M252.6,140.8l-2,4.6l-14,31.4l-14-31.4l-2-4.6c-3.3,1.1-6.4,2.5-9.3,4.2v98.2h50.6V145
					C259,143.3,255.9,141.9,252.6,140.8z"/>
			</g>
			<g id="XMLID_15_">
				<path id="XMLID_8_" class="st0" d="M236.6,126.7L236.6,126.7c-14.6,0-26.5-11.9-26.5-26.5V60.6c0-14.6,11.9-26.5,26.5-26.5h0
					c14.6,0,26.5,11.9,26.5,26.5v39.6C263.1,114.8,251.2,126.7,236.6,126.7z"/>
				<path id="XMLID_9_" d="M210,60.6c0,0-18.4-20-3.9-26.5c0,0,0.2-27.5,30.4-27.5s36.1,13,36.1,27.5c0,13.5-7,26.5-7,26.5
					s-36.5,0.5-46.5-9.5C219.2,51.2,210,49.6,210,60.6z"/>
				<path id="XMLID_10_" d="M218.2,98.9c0,0,6.2-6.3,19.4-6.3c13.3,0,17.4,6.3,17.4,6.3s-12.4,5.9-17.4,0
					C237.6,98.9,239.7,104.4,218.2,98.9z"/>
				<g id="XMLID_14_">
					<ellipse id="XMLID_12_" cx="228.5" cy="73.5" rx="2.7" ry="7"/>
					<ellipse id="XMLID_13_" cx="244.8" cy="73.5" rx="2.7" ry="7"/>
				</g>
			</g>
			<path id="XMLID_23_" class="st1" d="M240.5,146.8l-1.5,0.9c-0.5-0.6-1.2-1.1-2.1-1.1c-1,0-1.8,0.5-2.2,1.3l-2-1.1l-4.2-2.4v4.8
				v4.8l4.2-2.4l2-1.1c0.4,0.8,1.3,1.3,2.2,1.3c0.9,0,1.6-0.4,2.1-1.1l1.5,0.9l4.2,2.4v-4.8v-4.8L240.5,146.8z"/>
		</g>
		<line id="XMLID_19_" class="st2" x1="7.5" y1="243.2" x2="465.8" y2="243.2"/>
		<g id="XMLID_27_">
			<path id="XMLID_24_" class="st0" d="M47.9,243.2c0,0,0-44.7,0-54.7s6.7-14,13.3-14v-34.7h8v34.7c6.7,0,13.3,4,13.3,14
				s0,54.7,0,54.7H47.9z"/>
			<rect id="XMLID_25_" x="59.6" y="192.5" class="st0" width="23.1" height="41.7"/>
		</g>
		<g id="XMLID_31_">
			<path id="XMLID_29_" class="st0" d="M142.1,188.2v12.1c6,0,16.9,1.2,16.9,15.1c0,13.9,0,27.8,0,27.8h-47.1c0,0,0-13.9,0-27.8
				c0-13.9,10.9-15.1,16.9-15.1v-12.1H142.1z"/>
			<path id="XMLID_28_" class="st0" d="M142.1,188.2h-13.3c-2.3,0-4.2-1.9-4.2-4.2l0,0c0-2.3,1.9-4.2,4.2-4.2h13.3
				c2.3,0,4.2,1.9,4.2,4.2l0,0C146.3,186.3,144.4,188.2,142.1,188.2z"/>
			<rect id="XMLID_30_" x="120.5" y="213.7" class="st0" width="30" height="19"/>
		</g>
		<polygon id="XMLID_22_" class="st2" points="311.9,243.2 305.2,220.4 336.4,220.4 329.7,243.2 		"/>
		<g id="XMLID_21_">
			<path id="XMLID_32_" class="st2" d="M368.8,132.2v26.1c0,10.2-13.9,17.7-13.9,32.6c0,14.9,0,52.3,0,52.3h37.9c0,0,0-37.3,0-52.3
				c0-14.9-13.9-22.4-13.9-32.6v-26.1H368.8z"/>
			<polyline id="XMLID_33_" class="st2" points="392.8,203.7 363.5,203.7 363.5,234.7 392.8,234.7 			"/>
		</g>
	</g>
</g>
</svg>
